<svg id="visual" viewBox="0 0 900 600" width="900" height="600" xmlns="http://www.w3.org/2000/svg" xmlns:xlink="http://www.w3.org/1999/xlink" version="1.1"><path d="M0 19L39 19L39 55L78 55L78 0L117 0L117 43L157 43L157 13L196 13L196 0L235 0L235 31L274 31L274 37L313 37L313 7L352 7L352 31L391 31L391 13L430 13L430 13L470 13L470 13L509 13L509 25L548 25L548 43L587 43L587 31L626 31L626 0L665 0L665 0L704 0L704 19L743 19L743 49L783 49L783 49L822 49L822 13L861 13L861 67L900 67L900 0L900 0L900 0L861 0L861 0L822 0L822 0L783 0L783 0L743 0L743 0L704 0L704 0L665 0L665 0L626 0L626 0L587 0L587 0L548 0L548 0L509 0L509 0L470 0L470 0L430 0L430 0L391 0L391 0L352 0L352 0L313 0L313 0L274 0L274 0L235 0L235 0L196 0L196 0L157 0L157 0L117 0L117 0L78 0L78 0L39 0L39 0L0 0Z" fill="#0a1e1c"></path><path d="M0 49L39 49L39 109L78 109L78 73L117 73L117 103L157 103L157 55L196 55L196 121L235 121L235 115L274 115L274 115L313 115L313 55L352 55L352 121L391 121L391 163L430 163L430 91L470 91L470 127L509 127L509 31L548 31L548 109L587 109L587 73L626 73L626 0L665 0L665 67L704 67L704 97L743 97L743 133L783 133L783 157L822 157L822 157L861 157L861 67L900 67L900 127L900 0L900 65L861 65L861 11L822 11L822 47L783 47L783 47L743 47L743 17L704 17L704 0L665 0L665 0L626 0L626 29L587 29L587 41L548 41L548 23L509 23L509 11L470 11L470 11L430 11L430 11L391 11L391 29L352 29L352 5L313 5L313 35L274 35L274 29L235 29L235 0L196 0L196 11L157 11L157 41L117 41L117 0L78 0L78 53L39 53L39 17L0 17Z" fill="#061a17"></path><path d="M0 55L39 55L39 127L78 127L78 73L117 73L117 127L157 127L157 103L196 103L196 133L235 133L235 127L274 127L274 187L313 187L313 67L352 67L352 169L391 169L391 223L430 223L430 145L470 145L470 193L509 193L509 97L548 97L548 109L587 109L587 121L626 121L626 19L665 19L665 121L704 121L704 103L743 103L743 139L783 139L783 175L822 175L822 217L861 217L861 79L900 79L900 163L900 125L900 65L861 65L861 155L822 155L822 155L783 155L783 131L743 131L743 95L704 95L704 65L665 65L665 0L626 0L626 71L587 71L587 107L548 107L548 29L509 29L509 125L470 125L470 89L430 89L430 161L391 161L391 119L352 119L352 53L313 53L313 113L274 113L274 113L235 113L235 119L196 119L196 53L157 53L157 101L117 101L117 71L78 71L78 107L39 107L39 47L0 47Z" fill="#001512"></path><path d="M0 115L39 115L39 157L78 157L78 199L117 199L117 175L157 175L157 307L196 307L196 181L235 181L235 217L274 217L274 205L313 205L313 289L352 289L352 229L391 229L391 277L430 277L430 229L470 229L470 451L509 451L509 247L548 247L548 319L587 319L587 253L626 253L626 193L665 193L665 193L704 193L704 115L743 115L743 319L783 319L783 199L822 199L822 343L861 343L861 229L900 229L900 169L900 161L900 77L861 77L861 215L822 215L822 173L783 173L783 137L743 137L743 101L704 101L704 119L665 119L665 17L626 17L626 119L587 119L587 107L548 107L548 95L509 95L509 191L470 191L470 143L430 143L430 221L391 221L391 167L352 167L352 65L313 65L313 185L274 185L274 125L235 125L235 131L196 131L196 101L157 101L157 125L117 125L117 71L78 71L78 125L39 125L39 53L0 53Z" fill="#000f0a"></path><path d="M0 157L39 157L39 157L78 157L78 241L117 241L117 181L157 181L157 349L196 349L196 211L235 211L235 271L274 271L274 205L313 205L313 331L352 331L352 271L391 271L391 331L430 331L430 247L470 247L470 475L509 475L509 265L548 265L548 367L587 367L587 283L626 283L626 223L665 223L665 247L704 247L704 115L743 115L743 343L783 343L783 205L822 205L822 373L861 373L861 229L900 229L900 193L900 167L900 227L861 227L861 341L822 341L822 197L783 197L783 317L743 317L743 113L704 113L704 191L665 191L665 191L626 191L626 251L587 251L587 317L548 317L548 245L509 245L509 449L470 449L470 227L430 227L430 275L391 275L391 227L352 227L352 287L313 287L313 203L274 203L274 215L235 215L235 179L196 179L196 305L157 305L157 173L117 173L117 197L78 197L78 155L39 155L39 113L0 113Z" fill="#000000"></path><path d="M0 409L39 409L39 337L78 337L78 427L117 427L117 397L157 397L157 355L196 355L196 475L235 475L235 427L274 427L274 379L313 379L313 409L352 409L352 349L391 349L391 487L430 487L430 433L470 433L470 487L509 487L509 397L548 397L548 451L587 451L587 409L626 409L626 391L665 391L665 367L704 367L704 319L743 319L743 403L783 403L783 349L822 349L822 409L861 409L861 385L900 385L900 367L900 191L900 227L861 227L861 371L822 371L822 203L783 203L783 341L743 341L743 113L704 113L704 245L665 245L665 221L626 221L626 281L587 281L587 365L548 365L548 263L509 263L509 473L470 473L470 245L430 245L430 329L391 329L391 269L352 269L352 329L313 329L313 203L274 203L274 269L235 269L235 209L196 209L196 347L157 347L157 179L117 179L117 239L78 239L78 155L39 155L39 155L0 155Z" fill="#000000"></path><path d="M0 445L39 445L39 415L78 415L78 457L117 457L117 415L157 415L157 415L196 415L196 505L235 505L235 433L274 433L274 451L313 451L313 427L352 427L352 349L391 349L391 535L430 535L430 487L470 487L470 499L509 499L509 439L548 439L548 481L587 481L587 409L626 409L626 487L665 487L665 415L704 415L704 349L743 349L743 457L783 457L783 403L822 403L822 427L861 427L861 439L900 439L900 451L900 365L900 383L861 383L861 407L822 407L822 347L783 347L783 401L743 401L743 317L704 317L704 365L665 365L665 389L626 389L626 407L587 407L587 449L548 449L548 395L509 395L509 485L470 485L470 431L430 431L430 485L391 485L391 347L352 347L352 407L313 407L313 377L274 377L274 425L235 425L235 473L196 473L196 353L157 353L157 395L117 395L117 425L78 425L78 335L39 335L39 407L0 407Z" fill="#000000"></path><path d="M0 511L39 511L39 421L78 421L78 475L117 475L117 415L157 415L157 445L196 445L196 505L235 505L235 439L274 439L274 481L313 481L313 427L352 427L352 415L391 415L391 553L430 553L430 565L470 565L470 565L509 565L509 469L548 469L548 523L587 523L587 445L626 445L626 487L665 487L665 481L704 481L704 391L743 391L743 505L783 505L783 481L822 481L822 469L861 469L861 469L900 469L900 463L900 449L900 437L861 437L861 425L822 425L822 401L783 401L783 455L743 455L743 347L704 347L704 413L665 413L665 485L626 485L626 407L587 407L587 479L548 479L548 437L509 437L509 497L470 497L470 485L430 485L430 533L391 533L391 347L352 347L352 425L313 425L313 449L274 449L274 431L235 431L235 503L196 503L196 413L157 413L157 413L117 413L117 455L78 455L78 413L39 413L39 443L0 443Z" fill="#000f0a"></path><path d="M0 511L39 511L39 463L78 463L78 547L117 547L117 499L157 499L157 523L196 523L196 541L235 541L235 517L274 517L274 517L313 517L313 511L352 511L352 511L391 511L391 583L430 583L430 571L470 571L470 589L509 589L509 475L548 475L548 553L587 553L587 499L626 499L626 505L665 505L665 505L704 505L704 493L743 493L743 571L783 571L783 499L822 499L822 523L861 523L861 475L900 475L900 487L900 461L900 467L861 467L861 467L822 467L822 479L783 479L783 503L743 503L743 389L704 389L704 479L665 479L665 485L626 485L626 443L587 443L587 521L548 521L548 467L509 467L509 563L470 563L470 563L430 563L430 551L391 551L391 413L352 413L352 425L313 425L313 479L274 479L274 437L235 437L235 503L196 503L196 443L157 443L157 413L117 413L117 473L78 473L78 419L39 419L39 509L0 509Z" fill="#001512"></path><path d="M0 601L39 601L39 571L78 571L78 559L117 559L117 583L157 583L157 547L196 547L196 553L235 553L235 553L274 553L274 595L313 595L313 565L352 565L352 601L391 601L391 583L430 583L430 595L470 595L470 601L509 601L509 589L548 589L548 553L587 553L587 559L626 559L626 583L665 583L665 601L704 601L704 577L743 577L743 601L783 601L783 589L822 589L822 571L861 571L861 595L900 595L900 595L900 485L900 473L861 473L861 521L822 521L822 497L783 497L783 569L743 569L743 491L704 491L704 503L665 503L665 503L626 503L626 497L587 497L587 551L548 551L548 473L509 473L509 587L470 587L470 569L430 569L430 581L391 581L391 509L352 509L352 509L313 509L313 515L274 515L274 515L235 515L235 539L196 539L196 521L157 521L157 497L117 497L117 545L78 545L78 461L39 461L39 509L0 509Z" fill="#061a17"></path><path d="M0 601L39 601L39 601L78 601L78 601L117 601L117 601L157 601L157 601L196 601L196 601L235 601L235 601L274 601L274 601L313 601L313 601L352 601L352 601L391 601L391 601L430 601L430 601L470 601L470 601L509 601L509 601L548 601L548 601L587 601L587 601L626 601L626 601L665 601L665 601L704 601L704 601L743 601L743 601L783 601L783 601L822 601L822 601L861 601L861 601L900 601L900 601L900 593L900 593L861 593L861 569L822 569L822 587L783 587L783 599L743 599L743 575L704 575L704 599L665 599L665 581L626 581L626 557L587 557L587 551L548 551L548 587L509 587L509 599L470 599L470 593L430 593L430 581L391 581L391 599L352 599L352 563L313 563L313 593L274 593L274 551L235 551L235 551L196 551L196 545L157 545L157 581L117 581L117 557L78 557L78 569L39 569L39 599L0 599Z" fill="#0a1e1c"></path></svg>